<svg width="173" height="64" viewBox="0 0 173 64" fill="none" xmlns="http://www.w3.org/2000/svg">
<path d="M19.2626 50.2917C22.2729 48.2025 25.5281 47.8399 28.9571 49.1486L29.1072 49.1959C29.0361 49.1722 28.9571 49.1486 28.9571 49.1486C27.9932 48.6598 27.0688 47.8714 26.0496 47.7295C23.0788 47.2959 20.0527 47.2644 17.0898 46.8071C11.3774 45.932 5.69661 44.8677 0 43.8901C0.031601 43.425 0.0632172 42.9599 0.102722 42.4947C2.10957 42.4947 4.11642 42.3922 6.11537 42.5105C16.4578 43.1412 26.8239 44.6154 37.1425 44.3237C57.0688 43.764 76.9714 42.203 96.8898 41.1072C97.6009 41.0678 98.3436 41.5487 99.0705 41.7852C100.082 40.7209 100.896 39.1205 102.128 38.6632C114.469 34.1301 126.795 29.5181 139.318 25.529C144.699 23.8103 150.53 23.5028 157.245 22.3676C156.195 25.1821 155.855 26.7194 155.104 28.0123C151.225 34.6425 145.102 38.5292 137.935 40.3898C121.651 44.6154 105.289 48.6046 88.8703 52.2705C83.5766 53.4531 77.9906 53.3112 72.5469 53.7763C72.5548 53.5162 72.5706 53.256 72.5785 52.9958C74.6564 52.0892 76.7344 51.1905 78.8123 50.2838C73.0446 51.0959 67.269 51.9158 62.7417 52.5543C68.9598 55.4004 76.9872 56.7564 85.0462 54.9825C104.151 50.7726 123.255 46.4839 142.099 41.2806C147.314 39.8379 152.276 35.7384 156.171 31.7177C162.318 25.3713 160.706 19.1826 152.663 15.4693C149.115 13.8295 145.283 12.7889 141.578 11.4802C136.861 13.12 135.146 12.103 132.863 5.64623C135.312 6.84455 137.185 7.76695 139.065 8.68146C134.159 2.91846 127.656 1.42055 120.838 3.32841C115.497 4.82632 110.156 7.19932 105.565 10.2976C92.489 19.1195 79.7921 28.509 66.953 37.6778C66.0997 38.2848 64.717 38.7815 64.5195 39.5699C63.3264 44.2843 59.5418 42.7076 57.2427 41.9823C49.3654 39.5068 41.6856 36.3848 33.9426 33.4836C32.9866 33.121 32.078 32.6243 31.1457 32.1907C31.2721 31.8675 31.4064 31.5442 31.5328 31.2131C40.9508 33.8463 50.3688 36.4794 60.245 39.2387C60.245 37.5595 60.2845 36.2902 60.2371 35.021C59.9527 27.0111 59.5734 19.0091 59.3996 10.9914C59.3601 8.97316 59.9448 6.93127 60.245 4.90516C60.6006 4.92093 60.9482 4.92881 61.3038 4.94458C63.358 14.2237 65.4202 23.5107 67.6245 33.46C69.4339 32.5297 70.8482 32.0015 72.0412 31.1501C82.992 23.4004 93.7294 15.3432 104.909 7.94039C109.531 4.88151 114.912 2.69772 120.237 1.05002C125.476 -0.574026 131.575 -0.613444 135.747 3.0919C141.388 8.09806 147.685 11.3619 154.591 13.8689C155.444 14.1764 156.218 14.7362 156.969 15.2644C161.654 18.5992 163.527 23.763 160.651 28.6982C158.344 32.648 154.851 36.038 151.422 39.1757C149.194 41.2176 146.137 42.3686 143.45 43.9217C143.435 44.237 143.427 44.5445 143.411 44.8598C153.287 46.7204 163.14 48.5967 173 50.4652C171.333 51.2062 169.658 51.3876 167.999 51.6398C166.292 51.8921 164.601 52.2153 162.895 52.4992C165.178 54.541 165.297 56.6618 163.132 58.8692C161.03 60.9032 156.787 60.6588 153.358 58.3095C150.585 56.4095 150.609 54.1469 153.635 52.6805C155.721 51.6635 158.028 51.1116 160.232 50.3469C155.152 50.5203 150.063 50.6859 144.983 50.8593C149.447 53.6344 150.277 61.4866 142.392 61.4866C140.582 61.4866 137.003 60.1464 135.012 58.8377C133.645 57.9389 133.013 56.2597 133.432 54.6829C133.764 53.4294 134.151 52.3099 134.965 51.9394C135.044 51.9079 135.431 51.6241 135.96 51.2535C123.105 51.4664 110.345 51.8527 97.6957 55.1717C85.9943 58.2385 73.9295 60.1148 61.9121 54.5095C62.1966 59.0032 61.0035 62.3932 56.5632 63.6783C52.7786 64.7662 47.6508 62.9845 45.6045 59.9966C43.0683 56.2912 45.4702 53.7054 48.3145 50.6465C41.5039 50.1498 35.3727 49.7004 29.2416 49.259C33.6424 53.1535 33.5871 58.4514 29.0203 60.8559C25.6545 62.6297 22.3045 61.7783 19.3337 59.9177C15.3437 57.3949 15.3832 52.9801 19.2626 50.2917ZM158.889 55.9049C158.889 57.395 159.971 58.6012 161.307 58.6012C162.642 58.6012 163.724 57.395 163.724 55.9049C163.724 54.4149 162.642 53.2087 161.307 53.2087C159.971 53.2087 158.889 54.4149 158.889 55.9049ZM142.637 60.2489C144.043 60.2489 145.275 59.5236 145.987 58.4277C146.058 58.3252 146.121 58.2149 146.176 58.1045C146.461 57.5526 146.627 56.9298 146.627 56.2676C146.627 54.068 144.841 52.2863 142.637 52.2863C140.432 52.2863 139.413 54.068 139.413 56.2676C139.413 58.4671 140.432 60.2489 142.637 60.2489ZM54.2324 62.3853C56.8239 62.4642 59.8816 59.4447 59.9211 56.7721C59.9685 53.8946 57.6693 51.5531 54.7064 51.4506C51.6488 51.3481 49.4128 53.666 49.3654 57.0008C49.3259 59.4368 51.9253 62.3144 54.2324 62.3853ZM26.5078 60.1148C28.8544 59.9729 30.0159 58.0651 30.1581 55.2585C30.3161 52.1996 29.2495 50.0946 25.7967 50.1892C22.8023 50.2681 20.7796 51.7502 20.59 54.8564C20.4162 57.7813 22.7944 60.0281 26.5078 60.1148Z" fill="#9DCEFC"/>
<path d="M124.045 7.39641C129.861 5.4176 131.022 5.97734 134.348 12.2449C130.532 12.8992 126.858 13.5299 122.394 14.2947C123.089 11.5354 120.182 8.71299 124.045 7.39641Z" fill="#9DCEFC"/>
<path d="M113 16.5731C113.632 12.1582 115.844 9.26485 120.49 8.57109C121.817 15.2013 120.751 16.3208 113 16.5731Z" fill="#9DCEFC"/>
<path d="M102.729 35.5649C102.555 35.6753 101.046 34.4927 101.03 33.8857C100.864 28.2725 100.888 22.6593 100.856 17.0461C102.065 16.2183 103.274 15.3905 105.281 14.0109C105.281 21.0747 105.281 27.153 105.281 33.2392C104.451 34.0434 103.685 34.9658 102.729 35.5649Z" fill="#9DCEFC"/>
</svg>
