<svg width="28" height="27" viewBox="0 0 28 27" fill="none" xmlns="http://www.w3.org/2000/svg">
<path d="M19.3882 8.49922V14.7492C19.3882 15.7438 19.7833 16.6976 20.4865 17.4009C21.1898 18.1041 22.1436 18.4992 23.1382 18.4992C24.1327 18.4992 25.0866 18.1041 25.7898 17.4009C26.4931 16.6976 26.8882 15.7438 26.8882 14.7492V13.4992C26.888 10.678 25.9335 7.93982 24.1798 5.72989C22.4261 3.51995 19.9764 1.96826 17.229 1.3271C14.4816 0.685937 11.5981 0.993026 9.04738 2.19843C6.49664 3.40384 4.42869 5.43667 3.17977 7.96637C1.93084 10.4961 1.5744 13.3739 2.1684 16.1319C2.76241 18.8898 4.27191 21.3658 6.45148 23.157C8.63105 24.9483 11.3525 25.9496 14.1733 25.9982C16.9941 26.0467 19.7483 25.1395 21.9882 23.4242M19.3882 13.4992C19.3882 16.2606 17.1496 18.4992 14.3882 18.4992C11.6268 18.4992 9.38819 16.2606 9.38819 13.4992C9.38819 10.7378 11.6268 8.49922 14.3882 8.49922C17.1496 8.49922 19.3882 10.7378 19.3882 13.4992Z" stroke="#1D295D" stroke-width="2" stroke-linecap="round" stroke-linejoin="round"/>
</svg>
