<svg width="33" height="31" viewBox="0 0 33 31" fill="none" xmlns="http://www.w3.org/2000/svg">
<path d="M2 2H6.92718L11.1505 20.4737H25.932L31 7.68421H9.03883M14.6699 27.5789C14.6699 28.3638 14.0396 29 13.2621 29C12.4846 29 11.8544 28.3638 11.8544 27.5789C11.8544 26.7941 12.4846 26.1579 13.2621 26.1579C14.0396 26.1579 14.6699 26.7941 14.6699 27.5789ZM25.932 27.5789C25.932 28.3638 25.3018 29 24.5243 29C23.7468 29 23.1165 28.3638 23.1165 27.5789C23.1165 26.7941 23.7468 26.1579 24.5243 26.1579C25.3018 26.1579 25.932 26.7941 25.932 27.5789Z" stroke="#1D295D" stroke-width="3" stroke-linecap="round" stroke-linejoin="round"/>
</svg>
