<svg width="23" height="22" viewBox="0 0 23 22" fill="none" xmlns="http://www.w3.org/2000/svg">
<path d="M21.6563 15.9201V18.9201C21.6575 19.1986 21.599 19.4743 21.4847 19.7294C21.3703 19.9846 21.2026 20.2137 20.9922 20.402C20.7819 20.5902 20.5335 20.7336 20.2631 20.8228C19.9927 20.912 19.7061 20.9452 19.4218 20.9201C16.2676 20.5857 13.2378 19.5342 10.5758 17.8501C8.09918 16.3148 5.99942 14.2663 4.42566 11.8501C2.69334 9.2413 1.61529 6.27109 1.27883 3.1801C1.25321 2.90356 1.2869 2.62486 1.37774 2.36172C1.46859 2.09859 1.6146 1.85679 1.80648 1.65172C1.99836 1.44665 2.2319 1.28281 2.49224 1.17062C2.75259 1.05843 3.03402 1.00036 3.31863 1.0001H6.39371C6.89116 0.995321 7.37342 1.16718 7.7506 1.48363C8.12778 1.80008 8.37414 2.23954 8.44376 2.7201C8.57355 3.68016 8.81426 4.62282 9.16128 5.5301C9.29919 5.88802 9.32904 6.27701 9.24729 6.65098C9.16553 7.02494 8.97561 7.36821 8.70002 7.6401L7.39823 8.9101C8.85742 11.4136 10.9822 13.4865 13.5484 14.9101L14.8502 13.6401C15.1289 13.3712 15.4807 13.1859 15.864 13.1062C16.2474 13.0264 16.6461 13.0556 17.013 13.1901C17.943 13.5286 18.9092 13.7635 19.8933 13.8901C20.3912 13.9586 20.846 14.2033 21.171 14.5776C21.4961 14.9519 21.6688 15.4297 21.6563 15.9201Z" stroke="#9DCEFC" stroke-linecap="round" stroke-linejoin="round"/>
</svg>
