<svg width="22" height="27" viewBox="0 0 22 27" fill="none" xmlns="http://www.w3.org/2000/svg">
<path d="M11.2772 26C11.2772 26 1.08717 20.375 1.08717 11.25C1.05317 9.91589 1.29163 8.58861 1.78848 7.34635C2.28534 6.10409 3.03054 4.97199 3.98018 4.01676C4.92982 3.06153 6.06469 2.3025 7.3179 1.78439C8.57112 1.26629 9.91734 0.999583 11.2772 1C12.6371 0.999583 13.9833 1.26629 15.2365 1.78439C16.4898 2.3025 17.6246 3.06153 18.5743 4.01676C19.5239 4.97199 20.2691 6.10409 20.766 7.34635C21.2628 8.58861 21.5013 9.91589 21.4673 11.25C21.4673 20.375 11.2772 26 11.2772 26Z" stroke="#9DCEFC" stroke-linecap="round" stroke-linejoin="round"/>
<path d="M11.2772 14.75C13.3876 14.75 15.0985 13.0711 15.0985 11C15.0985 8.92893 13.3876 7.25 11.2772 7.25C9.16679 7.25 7.45595 8.92893 7.45595 11C7.45595 13.0711 9.16679 14.75 11.2772 14.75Z" stroke="#9DCEFC" stroke-linecap="round" stroke-linejoin="round"/>
</svg>
