<svg width="51" height="50" viewBox="0 0 51 50" fill="none" xmlns="http://www.w3.org/2000/svg">
<path d="M50.3748 11.8698C50.0446 9.69985 49.4044 7.89988 48.424 6.3549C46.2981 2.99995 43.1768 1.04998 38.89 0.389994C36.9042 0.0849987 34.8584 0.0449993 32.9326 0.0299995C30.2214 0.00499992 27.5303 0 25.0043 0C23.4236 0 21.908 0.00499992 20.4874 0.00499992C17.7163 0.00999985 15.4103 0.0399994 13.0443 0.329995C10.8484 0.599991 8.99767 1.19498 7.38701 2.14997C3.95559 4.18994 1.91975 7.24489 1.16443 11.5048C0.81429 13.4748 0.76427 15.4398 0.759268 17.0997C0.744262 22.1547 0.764271 27.5246 0.814291 34.5195C0.829298 36.4245 1.01938 38.1044 1.40454 39.6544C2.30991 43.3243 4.34075 46.0993 7.44703 47.9093C9.51788 49.1143 11.9689 49.7593 14.9401 49.8693C17.156 49.9543 19.487 49.9942 22.0631 49.9992C26.1748 50.0042 30.4065 49.9842 34.9984 49.9392C37.0843 49.9193 38.6749 49.7543 40.1455 49.3993C45.1776 48.1893 48.3589 45.2493 49.8746 40.4144C50.5498 38.2494 50.6599 36.0195 50.6749 34.3145C50.6999 32.1495 50.6949 29.9445 50.6899 27.8096C50.6899 26.8846 50.6849 25.9546 50.6849 25.0296V24.5196H50.7449C50.7449 23.9746 50.7449 23.4296 50.7499 22.8897C50.7549 21.2847 50.7599 19.6247 50.7399 17.9947C50.7149 15.9848 50.6899 13.9198 50.3748 11.8698ZM47.2285 27.4696C47.2035 29.7496 47.1834 31.7595 47.1434 33.7695C47.1084 35.5195 47.0434 37.2244 46.6082 38.8994C45.5828 42.8744 42.9917 45.2693 38.915 46.0093C37.6595 46.2393 36.2739 46.3643 34.6783 46.3893C31.4319 46.4443 27.9505 46.4743 23.7888 46.4743C23.4586 46.4743 23.1235 46.4743 22.7884 46.4743C20.4424 46.4743 18.1865 46.4143 15.4803 46.3393C13.5546 46.2843 12.0039 46.0143 10.6083 45.4793C7.59709 44.3293 5.65629 42.0794 4.85096 38.7894C4.52082 37.4444 4.36576 35.9745 4.35576 34.1545C4.33074 27.9346 4.33074 21.7797 4.35576 15.8548C4.36576 13.8198 4.54583 12.2848 4.941 10.8748C6.01644 7.04489 8.5825 4.73493 12.5691 4.01494C13.8297 3.78494 15.2252 3.65995 16.8359 3.62995C20.3123 3.56995 24.0689 3.53995 28.6658 3.54495C31.0368 3.54495 33.3927 3.60495 36.0038 3.67994C37.9296 3.73494 39.4753 4.00494 40.8758 4.53993C43.8121 5.65991 45.7278 7.82488 46.5732 10.9798C46.8783 12.1298 47.0534 13.3848 47.0834 14.7048C47.1434 17.2147 47.1884 19.7247 47.2285 21.9147L47.2685 24.1946L47.2285 27.4696Z" fill="#9DCEFC"/>
<path d="M25.7396 12.4198C18.7967 12.4198 13.1444 18.0647 13.1444 25.0046C13.1444 31.9395 18.7867 37.5944 25.7296 37.6044C25.7346 37.6044 25.7396 37.6044 25.7496 37.6044C29.116 37.6044 32.2723 36.2995 34.6483 33.9295C37.0293 31.5495 38.3398 28.3796 38.3398 25.0046C38.3348 18.0647 32.6875 12.4198 25.7396 12.4198ZM32.1022 31.4495C30.3965 33.1345 28.1256 34.0645 25.7096 34.0645C25.6896 34.0645 25.6696 34.0645 25.6495 34.0645C23.2536 34.0495 21.0026 33.0995 19.3119 31.3895C17.5962 29.6546 16.6658 27.3446 16.6858 24.8896C16.7209 19.9447 20.8326 15.9598 25.8396 15.9698C28.2206 15.9848 30.4715 16.9397 32.1722 18.6597C33.873 20.3847 34.8033 22.6447 34.7883 25.0346C34.7783 27.4696 33.8229 29.7446 32.1022 31.4495Z" fill="#9DCEFC"/>
<path d="M39.3552 8.85987H39.3502C37.9446 8.86487 36.8042 10.0048 36.8042 11.3998C36.8042 12.7998 37.9496 13.9448 39.3502 13.9498C39.3552 13.9498 39.3552 13.9498 39.3602 13.9498C40.0355 13.9498 40.6708 13.6848 41.151 13.2098C41.6362 12.7248 41.9013 12.0748 41.9013 11.3848C41.8963 9.96985 40.7758 8.85987 39.3552 8.85987Z" fill="#9DCEFC"/>
</svg>
