<svg width="32" height="40" viewBox="0 0 32 40" fill="none" xmlns="http://www.w3.org/2000/svg">
<path fill-rule="evenodd" clip-rule="evenodd" d="M0.00499879 16.3923C0.00499879 30.9855 15.9975 39.9813 15.9975 39.9813C15.9975 39.9813 31.99 30.9855 31.99 16.3923C32.0434 14.2588 31.6691 12.1361 30.8894 10.1494C30.1096 8.16271 28.94 6.35221 27.4497 4.82456C25.9593 3.29691 24.1782 2.08303 22.2114 1.25444C20.2445 0.42586 18.1317 -0.000666275 15.9975 7.81211e-07C13.8633 -0.000666275 11.7505 0.42586 9.78366 1.25444C7.81683 2.08303 6.03575 3.29691 4.54536 4.82456C3.05497 6.35221 1.88543 8.16271 1.10565 10.1494C0.325879 12.1361 -0.0483572 14.2588 0.00499879 16.3923ZM15.9925 23.9888C20.4087 23.9888 23.9888 20.4087 23.9888 15.9925C23.9888 11.5763 20.4087 7.99625 15.9925 7.99625C11.5763 7.99625 7.99625 11.5763 7.99625 15.9925C7.99625 20.4087 11.5763 23.9888 15.9925 23.9888Z" fill="#1D295D"/>
</svg>
