<svg width="174" height="101" viewBox="0 0 174 101" fill="none" xmlns="http://www.w3.org/2000/svg">
<path d="M170.676 70.0916C170.093 69.9655 169.194 69.0356 169.241 68.5706C169.683 64.7642 168.681 61.7537 165.385 59.492C164.715 59.0349 164.715 57.5612 164.439 56.5524C161.663 46.5675 159.061 36.5195 155.977 26.637C155.362 24.6589 153.154 22.5233 151.183 21.7903C148.928 20.955 146.12 21.5933 143.084 21.5933V39.1359H135.901C135.554 36.3777 135.246 33.8794 134.931 31.3812C134.694 31.3734 134.458 31.3655 134.221 31.3576C133.898 33.974 133.574 36.5904 133.204 39.5142H115.367C113.947 45.4405 119.404 47.0325 121.998 50.4212C117.669 49.4282 113.979 47.7417 110.131 46.5833C107.134 45.677 106.085 44.1087 105.888 41.0037C105.391 33.2096 104.461 25.4391 103.712 17.6608C103.396 17.6608 103.073 17.6529 102.757 17.6529C101.945 25.8095 101.141 33.974 100.376 41.6972C89.2494 39.2935 78.2253 36.9845 67.2722 34.4153C66.3101 34.1868 65.2219 32.2875 65.0879 31.066C64.0785 22.0662 63.3215 13.0427 62.462 4.01919C62.3358 2.67158 62.0361 1.33973 61.8153 0L60.7744 0.00788077C59.6862 10.9543 58.6059 21.9086 57.565 32.4057C38.1033 31.3024 19.2015 30.2228 0.307539 29.151C0.205026 29.5844 0.102513 30.0179 0 30.4513C1.41153 31.531 2.81516 32.6264 4.23458 33.6982C10.4011 38.3794 16.6781 42.9108 22.7027 47.7732C30.7066 54.2276 37.7958 61.5488 43.5523 70.1783C46.2018 74.1502 46.123 77.5468 43.6942 81.3926C41.0919 85.5064 47.9367 99.6366 52.2974 101C52.2974 101 156.932 100.929 158.43 100.409C158.525 100.377 166.615 92.7488 167.317 92.5124C171.638 87.5002 173.689 82.0152 173.972 75.7421C174.099 73.0232 173.917 70.8009 170.676 70.0916ZM143.96 28.3077H151.475C151.467 28.6545 151.467 29.0012 151.459 29.348H143.944C143.944 28.9934 143.952 28.6466 143.96 28.3077ZM119.885 44.1402C117.638 44.1717 116.36 43.5964 116.605 40.7278C127.96 40.7278 139.339 40.6727 150.71 40.8224C151.68 40.8382 152.626 42.1621 153.588 42.8793C153.423 43.2891 153.257 43.6989 153.091 44.1087C149.622 44.1087 146.152 44.1087 142.682 44.1087C135.081 44.1087 127.479 44.0456 119.885 44.1402ZM148.597 50.7049V61.5331C139.946 58.1522 131.627 54.8975 123.299 51.6427C123.355 51.3275 123.41 51.0201 123.465 50.7049H148.597ZM161.261 84.7183C141.058 80.6991 120.902 76.3726 100.597 72.9444C83.6427 70.0837 66.523 68.1372 49.2299 69.4454C48.3231 69.5163 47.0219 69.2405 46.4857 68.6179C39.9958 61.1233 33.6164 53.5262 26.8347 45.5272C37.8667 46.1656 48.9539 46.8197 60.0411 47.458C82.1997 48.7268 102.892 56.1663 123.812 62.6049C138.479 67.1206 153.123 71.6914 167.774 76.2465C168.886 76.5932 169.974 76.9952 170.936 77.3261C171.086 77.8069 171.268 78.0669 171.228 78.2876C169.864 86.1053 169.375 86.3339 161.261 84.7183ZM171.078 74.6861C169.722 74.2684 168.342 73.8901 167.002 73.4173C146.704 66.2852 126.296 59.4368 106.14 51.9107C88.3426 45.2672 69.9139 42.2961 51.1303 40.9485C41.707 40.2708 32.2443 40.0107 22.7973 39.6482C16.2365 39.396 15.992 39.3487 10.7639 34.2735C14.1468 34.2735 17.1828 34.1868 20.2108 34.2892C43.0791 35.0379 65.9237 36.4801 88.0744 42.5483C99.6742 45.7243 110.864 50.4527 122.172 54.6453C137.304 60.2485 152.374 66.0094 167.467 71.7229C168.839 72.243 170.156 72.905 171.496 73.4961C171.354 73.8901 171.22 74.2921 171.078 74.6861Z" fill="#9DCEFC"/>
<path d="M72.6344 54.1252C69.7246 53.9203 68.0765 56.4815 68.526 59.1216C68.7941 60.7214 70.7103 63.0856 72.0982 63.2432C74.9528 63.5584 76.2539 61.1154 76.7744 57.175C75.7177 56.3397 74.2431 54.2355 72.6344 54.1252Z" fill="#9DCEFC"/>
</svg>
