<svg width="51" height="50" viewBox="0 0 51 50" fill="none" xmlns="http://www.w3.org/2000/svg">
<path d="M23.8663 0C24.8603 0 25.8493 0 26.8433 0C26.8932 0.029994 26.9482 0.0949809 26.9981 0.0899819C27.9122 0.0549889 28.8063 0.264947 29.7154 0.304939C29.7354 0.319936 29.7604 0.324935 29.7853 0.319936C29.8303 0.339932 29.8753 0.359928 29.9202 0.379924C30.3498 0.44991 30.7794 0.519896 31.2089 0.589882C31.6885 0.784843 32.1979 0.864827 32.6974 0.989802C33.192 1.14977 33.6864 1.31474 34.1809 1.4747C34.2509 1.5097 34.3208 1.53969 34.3908 1.57469C34.8153 1.73965 35.2399 1.90462 35.6695 2.06959C36.169 2.29954 36.6685 2.53449 37.168 2.76445C37.3178 2.85943 37.4527 2.9894 37.6475 2.9894C37.9522 3.22935 38.2769 3.44431 38.6415 3.58428C39.6705 4.23415 40.6545 4.94901 41.6185 5.69386C41.7484 5.81884 41.8483 5.9788 42.0231 6.04879C42.3478 6.34873 42.6775 6.64867 43.0071 6.94861C43.2069 7.14857 43.4067 7.34853 43.6065 7.54849C43.9362 7.88842 44.2609 8.22836 44.5905 8.56829C44.6505 8.72326 44.7554 8.83823 44.8902 8.93321C45.2898 9.42811 45.6844 9.92302 46.084 10.4179C46.3538 10.9528 46.7184 11.4277 47.0681 11.9126C47.168 12.2176 47.3178 12.4975 47.5526 12.7275C47.6625 12.9474 47.7724 13.1674 47.8823 13.3873C48.142 13.9222 48.4017 14.4521 48.6615 14.987C48.7714 15.3019 48.8763 15.6219 49.0611 15.9068C49.0761 16.0768 49.091 16.2517 49.2309 16.3767C49.3857 16.8666 49.5406 17.3615 49.6954 17.8514C49.8403 18.3913 49.9852 18.9312 50.13 19.4661C50.2998 20.4109 50.5396 21.3457 50.5845 22.3105C50.6295 22.9504 50.6794 23.5903 50.7244 24.2302C50.7344 24.5851 50.7444 24.935 50.7544 25.2899C50.6994 25.7848 50.6395 26.2847 50.6645 26.7846C50.6894 27.2845 50.4996 27.7694 50.5546 28.2693C50.5296 28.3393 50.4996 28.4093 50.4746 28.4793C50.4047 28.9042 50.3348 29.3291 50.2649 29.754C50.16 30.2539 50.0601 30.7489 49.9552 31.2488C49.8103 31.7387 49.6605 32.2336 49.5156 32.7235C49.121 33.7133 48.7264 34.6981 48.3318 35.6879C48.0771 36.1928 47.8223 36.6927 47.5626 37.1976C47.5376 37.2326 47.5126 37.2725 47.4826 37.3075C47.2129 37.7674 46.9382 38.2274 46.6685 38.6873C46.4237 38.9522 46.2189 39.2422 46.074 39.5771C45.8443 39.7221 45.7494 39.977 45.5895 40.177C45.3598 40.4519 45.13 40.7319 44.9002 41.0068C43.4916 42.6765 41.8932 44.1512 40.13 45.4409C39.7854 45.6509 39.4307 45.8508 39.131 46.1258C38.9662 46.2258 38.8013 46.3207 38.6365 46.4207C37.6525 46.9356 36.6984 47.5055 35.6695 47.9304C35.17 48.1304 34.6705 48.3253 34.176 48.5253C33.187 48.8202 32.198 49.1152 31.2089 49.4101C30.7044 49.4751 30.1999 49.5351 29.7154 49.6901C28.8613 49.7501 28.0171 49.94 27.153 49.94C26.5186 49.945 25.8842 49.85 25.2549 50C24.9552 50 24.6605 50 24.3608 50C23.6765 49.855 22.9772 49.835 22.2878 49.765C21.7883 49.6751 21.2988 49.5251 20.7893 49.5101C20.3298 49.4051 19.8703 49.3001 19.4107 49.1952C19.2609 49.0702 19.0711 49.0702 18.8962 49.0202C18.5366 48.9202 18.172 48.8152 17.8123 48.7153C17.3428 48.4803 16.8433 48.3353 16.3488 48.1804C15.3498 47.6955 14.3508 47.2056 13.3518 46.7207C12.7874 46.2657 12.0931 46.0258 11.5386 45.5509C11.184 45.2459 10.7694 45.006 10.3798 44.7361C10.3448 44.7011 10.3148 44.6711 10.2799 44.6361C9.81533 44.2412 9.35578 43.8412 8.89124 43.4463C8.80133 43.3013 8.68146 43.1914 8.52162 43.1364C8.15199 42.7465 7.77737 42.3515 7.40774 41.9616C7.30784 41.8616 7.20793 41.7617 7.11302 41.6667C6.72341 41.1968 6.32882 40.7269 5.93921 40.257C5.93921 40.232 5.92922 40.212 5.90924 40.192C5.33981 39.2971 4.58557 38.5173 4.16099 37.5275C4.11104 37.4125 4.00616 37.3175 3.92624 37.2176C3.4617 36.2278 2.99215 35.238 2.52761 34.2432C2.34779 33.7433 2.168 33.2434 1.98818 32.7485C1.70846 31.7686 1.40876 30.7888 1.23893 29.784C1.14902 29.2841 1.05909 28.7892 0.969176 28.2893C0.929216 27.7944 0.884261 27.2995 0.844301 26.8096C0.869276 26.3097 0.80934 25.8098 0.754395 25.3149C0.764385 24.93 0.774373 24.5451 0.784363 24.1552C0.829318 23.5503 0.879283 22.9404 0.924238 22.3355C0.979183 21.8806 1.02914 21.4307 1.08408 20.9758C1.19397 20.4359 1.30885 19.896 1.41874 19.3611C1.58857 18.3363 2.01313 17.3865 2.28286 16.3917C2.47767 15.9018 2.67747 15.4119 2.87227 14.922C2.90224 14.857 2.93221 14.797 2.96218 14.7321C3.25189 14.3271 3.38676 13.8422 3.62652 13.4073C3.88626 12.9074 4.22591 12.4525 4.43071 11.9226C4.77037 11.4277 5.11505 10.9328 5.45471 10.4429C5.64452 10.243 5.81435 10.033 5.92424 9.77804C6.20896 9.54809 6.39874 9.23815 6.61352 8.95321C6.87826 8.65827 7.143 8.35833 7.40274 8.06339C7.56758 7.89842 7.73241 7.73345 7.89724 7.56849C8.22691 7.23855 8.56157 6.90862 8.89124 6.57369C9.08605 6.40372 9.28588 6.23375 9.48068 6.06379C9.78038 5.81384 10.0851 5.56389 10.3848 5.31394C10.7494 5.03899 11.109 4.76405 11.4737 4.4891C11.6435 4.45911 11.7634 4.34913 11.8683 4.22416C12.8623 3.65427 13.8513 3.08438 14.8453 2.5095C15.3998 2.33953 15.9092 2.05959 16.4337 1.81464C16.6885 1.74465 16.9482 1.69966 17.153 1.5147C17.3928 1.5147 17.6125 1.43971 17.8123 1.29974C18.3168 1.14977 18.8213 0.994801 19.3258 0.844831C19.8153 0.739852 20.3198 0.684863 20.7943 0.494901C21.2888 0.424915 21.7834 0.354929 22.2729 0.279944C22.8073 0.164967 23.3618 0.234953 23.8663 0ZM4.13602 28.2693C4.10605 28.7942 4.27586 29.2891 4.39574 29.789C4.47067 30.2939 4.60555 30.7838 4.78537 31.2587C4.91024 31.7736 5.05009 32.2785 5.30983 32.7435C5.42472 33.2484 5.63453 33.7083 5.88927 34.1532C5.89427 34.1782 5.90426 34.1982 5.91924 34.2182C6.13403 34.7381 6.33882 35.2679 6.69846 35.7129C6.8633 36.1278 7.08308 36.5127 7.38777 36.8376C7.40276 36.9926 7.50765 37.0926 7.60255 37.1976C9.09107 39.4971 11.0041 41.3867 13.2419 42.9614C13.3468 43.0664 13.4667 43.1314 13.6115 43.1564C13.9762 43.4863 14.3957 43.7313 14.8353 43.9462C15.7644 44.5411 16.7384 45.031 17.7923 45.3609C18.2719 45.6109 18.7764 45.7858 19.3008 45.9058C20.2649 46.2607 21.2639 46.4807 22.2829 46.6007C22.7774 46.6657 23.2669 46.7307 23.7614 46.8006C24.2609 46.8206 24.7504 46.9656 25.2549 46.9006C25.7494 46.9156 26.2439 46.9456 26.7334 46.8856C27.2329 46.8306 27.7374 46.8656 28.2269 46.7307C28.7314 46.7107 29.2259 46.6507 29.7104 46.5057C30.7394 46.3907 31.7284 46.1208 32.6924 45.7409C33.2219 45.6159 33.7264 45.4259 34.2009 45.171C34.5956 45.061 34.9702 44.916 35.2999 44.6661C35.4547 44.6511 35.5846 44.5961 35.6894 44.4761C36.2239 44.2861 36.6984 43.9862 37.158 43.6563C37.4277 43.5313 37.6775 43.3763 37.8873 43.1614C38.177 43.0514 38.4317 42.8814 38.6465 42.6615C39.0411 42.3615 39.4357 42.0566 39.8303 41.7566C39.9302 41.6617 40.0351 41.5667 40.135 41.4717C40.5796 41.0918 41.0441 40.7319 41.4237 40.2819C41.5386 40.227 41.6285 40.152 41.6285 40.012C42.0881 39.6321 42.4527 39.1672 42.8023 38.6873C42.9522 38.5973 43.0221 38.4423 43.112 38.2973C43.4167 37.9624 43.6715 37.5925 43.8962 37.1976C44.5656 36.2677 45.145 35.2829 45.5845 34.2232C46.0791 33.2783 46.4437 32.2835 46.7184 31.2537C46.9232 30.7838 47.0381 30.2889 47.098 29.779H47.093C47.113 29.7391 47.138 29.6991 47.158 29.6591C47.2179 29.1942 47.3927 28.7493 47.3678 28.2693C47.5026 27.7794 47.5975 27.2895 47.5576 26.7796C47.5726 26.5247 47.5876 26.2747 47.5975 26.0198C47.7124 25.2799 47.7374 24.5401 47.5825 23.8052C47.5825 23.3053 47.5925 22.8104 47.4577 22.3255C47.5076 21.8106 47.3078 21.3307 47.2579 20.8308C47.113 20.3409 47.098 19.816 46.8733 19.3511C46.8233 18.7862 46.5935 18.2763 46.3937 17.7514C46.3188 17.5265 46.2439 17.3015 46.169 17.0766C46.0691 16.8416 45.9692 16.6067 45.8693 16.3717C45.6345 15.8618 45.4497 15.3269 45.125 14.862C45.0251 14.5271 44.8403 14.2322 44.6205 13.9622C44.5506 13.7523 44.4357 13.5673 44.2909 13.4023C43.5316 12.0776 42.5476 10.9178 41.5086 9.81304C41.124 9.40312 40.6545 9.05819 40.2599 8.66827C39.3258 7.74845 38.2669 7.0236 37.168 6.34873C36.2489 5.77385 35.3048 5.24895 34.2909 4.85903C33.2869 4.42911 32.2629 4.05919 31.2039 3.79424C30.7094 3.69926 30.2349 3.5043 29.7254 3.4943C29.2409 3.33433 28.7414 3.27434 28.2369 3.26935C27.7524 3.11938 27.2479 3.19936 26.7534 3.14437C26.2239 3.0194 25.6895 3.09938 25.155 3.09938C24.6955 3.13437 24.2309 3.16437 23.7714 3.19936C23.2619 3.19936 22.7674 3.28434 22.2779 3.39932C21.7734 3.45431 21.2789 3.53429 20.7993 3.69926C20.2799 3.75925 19.7904 3.92422 19.3058 4.09418C18.9512 4.18416 18.5916 4.26415 18.2819 4.46411C18.0721 4.46411 17.8773 4.5141 17.7124 4.66407C17.2229 4.79904 16.7684 5.014 16.3338 5.27394C15.8693 5.43891 15.4347 5.66387 15.0351 5.95381C14.9702 5.9888 14.9102 6.0188 14.8453 6.05379C14.3058 6.30874 13.8064 6.63367 13.3518 7.0186C13.132 7.12857 12.9022 7.22855 12.7624 7.44851C12.4077 7.60848 12.123 7.85343 11.8733 8.13837C11.5036 8.33333 11.2339 8.63827 10.9492 8.92822C10.7144 9.11318 10.4697 9.28314 10.2949 9.53309C9.99517 9.80304 9.71543 10.083 9.49065 10.4179C9.22092 10.5879 9.06108 10.8478 8.89624 11.1078C8.62152 11.3177 8.4317 11.5977 8.26687 11.8976C7.51762 12.8074 6.89826 13.7972 6.38377 14.857C5.8593 15.7768 5.42971 16.7367 5.12002 17.7514C4.91523 18.2713 4.69547 18.7862 4.64052 19.3461C4.33083 20.3159 4.13101 21.3007 4.05608 22.3155C3.86627 22.8004 3.95618 23.3103 3.93121 23.8102C3.78136 24.2651 3.8663 24.7351 3.8613 25.195C3.81135 25.7299 3.86128 26.2597 3.96118 26.7846C3.95618 27.2895 4.00615 27.7844 4.13602 28.2693Z" fill="#9DCEFC"/>
<path d="M37.5876 14.877C37.5126 15.3769 33.3418 36.7576 33.0021 37.1976C32.8973 37.3275 32.7974 37.4575 32.6925 37.5925C32.2479 37.9324 31.7434 38.1474 31.204 38.2823C30.7095 38.3273 29.7354 38.1774 29.7354 38.1774C29.6955 38.1574 24.8203 34.6181 24.6655 34.4331C24.2709 33.9582 23.9612 34.0832 23.6565 34.5131C23.2269 34.913 21.6185 36.3477 21.3089 36.6377C20.2949 37.5675 18.8663 37.3125 18.202 36.1028C17.8723 35.5079 16.0941 28.9542 15.6545 28.7742C15.3998 28.6693 14.8553 28.5543 14.8553 28.5543C14.8153 28.5343 10.0651 26.8346 9.91026 26.7596C9.50067 26.3847 9.12604 25.9898 8.91126 25.4649C8.89627 25.4099 8.88627 25.3549 8.87129 25.2999C8.67648 24.2601 9.0811 23.5103 9.92026 22.9004C10.5496 22.4455 33.7015 12.8424 34.176 12.5925C34.6705 12.4875 35.16 12.3525 35.6695 12.3825C36.2489 12.5175 37.9272 12.8424 37.5876 14.877ZM34.7404 15.3169C34.5256 15.4219 12.6975 24.6101 12.2479 24.78C12.6975 24.925 17.8273 26.6897 17.9123 26.6347C18.3768 26.3297 30.7094 18.7163 31.199 18.4363C31.7934 18.1764 32.2579 18.8712 31.8883 19.3411C31.6535 19.5961 21.7884 28.8542 21.5086 29.0492C21.2489 29.2342 20.5796 33.5483 20.5746 33.5583C20.5796 33.5483 23.5366 30.9088 23.7664 30.6889C24.0961 30.5689 24.3258 30.7488 24.5706 30.9288C25.2949 31.4637 30.2049 35.233 30.4447 35.4529C30.6945 35.6829 30.8393 35.5529 30.8893 35.2729C30.9642 34.918 34.7604 15.7119 34.7404 15.3169Z" fill="#9DCEFC"/>
</svg>
