<svg width="176" height="114" viewBox="0 0 176 114" fill="none" xmlns="http://www.w3.org/2000/svg">
<path d="M175.597 107.909C173.938 107.798 172.658 107.718 171.37 107.631C171.188 107.258 171.007 106.877 170.825 106.505C172.239 105.648 173.653 104.791 175.613 103.61C175.613 101.095 175.486 97.9386 175.644 94.7978C175.889 89.9119 173.985 86.5728 169.569 84.2647C151.199 74.6596 134.212 62.8574 117.454 50.7301C111.425 46.3678 105.823 41.4185 100.032 36.731C103.232 31.3772 109.663 27.4986 104.306 20.2413C125.995 43.5045 147.398 66.3632 174.633 82.4959C163.2 72.756 151.136 63.7299 140.035 53.6251C128.807 43.4093 118.536 32.1307 108.21 21.6848C110.24 20.0271 111.496 19.0119 112.753 17.9887C111.141 17.489 109.513 16.5452 107.917 16.5848C105.286 16.6483 103.516 15.8234 101.92 13.7136C98.8153 9.62096 95.4495 5.71864 92.1548 1.76873C91.5938 1.09455 90.8274 0.586934 90.1558 0C89.8239 0.301398 89.5 0.602798 89.1682 0.904196C93.1661 5.909 97.1719 10.9138 101.62 16.4897C99.3683 16.4897 97.8356 16.4897 96.3028 16.4897C94.5883 16.4897 92.8421 16.2676 91.1829 16.569C90.2743 16.7355 89.5237 17.7746 88.7099 18.417C89.4763 19.004 90.2032 20.0033 91.0249 20.0906C93.2372 20.3365 95.5443 19.9002 97.7091 20.3047C99.0681 20.5585 100.822 21.5579 101.391 22.7159C103.864 27.8159 103.224 29.4181 97.4958 34.3039C91.3488 29.0215 85.4231 23.3584 78.889 18.5122C74.6462 15.3634 69.7792 12.1749 64.762 11.1597C50.0109 8.16949 38.3253 14.5782 28.9785 25.603C21.7333 34.1532 15.1676 43.2903 7.81964 51.7374C0.0134665 60.708 -1.86697 70.7573 1.81489 81.6314C4.46962 89.4678 4.9911 96.7648 0.131997 104.784C3.61633 104.784 6.23946 104.72 8.84678 104.799C11.2803 104.879 14.2194 103.919 15.4441 107.853C10.2689 107.853 5.33084 107.853 0.0529823 107.853C0.266309 110.145 0.440132 112.041 0.621854 114C59.1997 114 117.446 114 176 114C175.858 111.787 175.731 109.891 175.597 107.909ZM20.5481 107.575C22.8315 103.705 25.6285 103.641 28.3306 107.575C25.6522 107.575 23.1081 107.575 20.5481 107.575ZM33.0396 107.52C32.929 107.187 32.8105 106.846 32.6999 106.513C34.1931 105.942 35.6627 104.942 37.1718 104.871C41.7465 104.649 46.3369 104.887 50.9116 104.752C53.037 104.688 55.7628 105.926 56.9085 102.626C56.9638 102.475 59.3577 102.674 60.0609 103.348C61.1276 104.355 61.6727 105.926 62.5893 107.52C52.6419 107.52 42.8368 107.52 33.0396 107.52ZM66.9111 107.655C68.6414 105.632 69.9925 104.054 71.3357 102.483C72.7657 103.951 74.1879 105.41 76.3844 107.655C72.6235 107.655 70.1742 107.655 66.9111 107.655ZM80.082 107.544C81.2988 103.253 83.9377 102.499 87.6512 102.777C93.411 103.205 99.2182 103.229 105.002 103.126C108.138 103.07 109.995 104.022 110.295 107.536C100.261 107.544 90.2506 107.544 80.082 107.544ZM114.759 96.2492C106.163 94.9802 98.0173 93.7905 89.8714 92.5769C82.3259 91.4586 74.7805 90.3402 67.2429 89.1743C61.5226 88.2939 58.6467 89.7374 56.2527 95.0198C55.3836 96.9313 54.791 98.9697 53.9693 101.214C37.6933 101.214 21.6701 101.214 5.02268 101.214C8.63343 93.1559 6.47649 85.4703 4.69876 77.7608C2.5497 68.4412 4.1536 60.2083 10.6245 52.6971C17.6643 44.5197 23.8191 35.573 30.693 27.229C38.8784 17.2908 49.442 11.6594 62.4708 13.3408C67.2746 13.9595 72.347 16.4659 76.2422 19.4878C86.0078 27.0703 95.1729 35.446 104.575 43.4966C111.378 49.3262 114.886 56.6391 114.791 65.7049C114.68 75.7065 114.759 85.7082 114.759 96.2492ZM121.847 107.631C122.044 104.688 123.308 103.427 126.334 103.641C130.775 103.959 135.239 103.856 139.687 103.99C142.776 104.078 142.768 104.117 143.472 107.631C136.266 107.631 129.084 107.631 121.847 107.631ZM147.264 99.5884C137.815 98.6604 128.365 97.7324 118.686 96.7806C118.686 89.0474 118.686 81.9725 118.686 74.8975C119.081 74.7072 119.476 74.5168 119.871 74.3344C120.503 75.4448 121.649 76.5394 121.689 77.6656C121.878 83.0591 121.776 88.4525 121.776 94.1632C130.49 95.5195 138.968 96.8441 147.438 98.1607C147.383 98.6446 147.319 99.1204 147.264 99.5884ZM118.844 68.9409C118.307 64.2534 117.73 59.201 117.098 53.6727C119.966 55.6239 122.716 57.464 125.426 59.3596C130.482 62.905 135.515 66.4663 140.548 70.0434C144.854 73.105 147.304 77.2056 147.58 83.305C137.704 78.3715 128.31 73.6681 118.844 68.9409ZM149.176 75.421C157.433 81.4173 167.491 83.3763 173.867 90.9827C173.543 91.4824 173.219 91.9821 172.895 92.4818C165.492 89.9754 158.088 87.469 150.432 84.8754C150.069 82.1549 149.682 79.2202 149.176 75.421ZM150.504 88.3335C154.059 90.9192 151.926 94.6788 153.221 98.2242C159.724 99.0173 166.495 99.8502 173.274 100.675C173.235 101.151 173.187 101.627 173.148 102.103C165.65 101.397 158.16 100.691 150.511 99.9771C150.504 95.9002 150.504 92.1169 150.504 88.3335ZM152.1 107.48C151.823 107.155 151.554 106.83 151.278 106.505C152.455 105.799 153.743 104.371 154.802 104.53C158.452 105.069 162.948 102.594 166.535 107.48C161.099 107.48 156.595 107.48 152.1 107.48Z" fill="#9DCEFC"/>
<path d="M41.1065 23.168C38.6651 23.7391 36.0973 25.3809 34.4223 27.2766C30.4244 31.8134 26.9163 36.7944 23.2187 41.6009C19.6395 46.2647 16.0683 50.9363 12.8368 55.1639C22.4839 56.0046 31.8623 56.9326 41.2645 57.5195C42.6551 57.6068 44.7014 56.4488 45.5073 55.2352C51.4173 46.344 57.0981 37.2941 62.8342 28.2839C63.6559 26.999 64.367 25.6427 65.3783 23.8819C56.948 21.9783 49.0075 21.32 41.1065 23.168Z" fill="#9DCEFC"/>
<path d="M69.0444 31.6865C65.2993 32.5114 65.9314 35.7078 65.9156 38.4124C65.884 44.8687 65.9077 51.3329 65.9077 57.7892C65.8998 57.7892 65.8919 57.7892 65.8761 57.7892C65.8761 64.7769 65.8208 71.7646 65.8919 78.7443C65.9472 83.6857 67.8197 85.5099 72.5524 85.4782C77.0243 85.4465 76.977 82.1469 76.9928 79.0695C77.056 66.6805 77.048 54.2914 77.048 41.9023C77.048 40.5857 77.0639 39.2532 76.8347 37.9603C76.4002 35.3985 71.3357 31.1868 69.0444 31.6865ZM73.8324 58.5823C70.2769 58.6379 69.0997 57.353 69.1708 54.5055C69.2972 49.6832 69.2024 44.8608 69.2024 40.0384C69.6448 39.8163 70.0952 39.5942 70.5376 39.3801C71.6359 40.7126 73.5637 41.9737 73.6743 43.3855C74.0694 48.3269 73.8324 53.3158 73.8324 58.5823Z" fill="#9DCEFC"/>
<path d="M106.685 55.6001C100.877 51.9833 95.323 47.9779 89.6501 44.1469C87.2087 42.4972 84.7436 40.895 81.5516 38.7773C81.5516 41.5216 81.7254 43.3459 81.5121 45.1225C81.0934 48.6283 82.3338 50.7381 85.7075 52.1023C89.8398 53.7758 93.7507 55.9967 97.7565 57.9875C101.596 59.891 105.444 61.8026 109.379 63.7616C110.619 59.891 109.813 57.5513 106.685 55.6001Z" fill="#9DCEFC"/>
<path d="M16.9216 64.2693C11.3514 64.2534 10.9326 64.65 10.9089 69.8848C10.8852 75.3972 11.2882 75.8176 16.5739 75.8255C21.7333 75.8335 22.4681 75.1593 22.4681 70.4241C22.4681 64.9355 21.8755 64.2851 16.9216 64.2693Z" fill="#9DCEFC"/>
</svg>
