<svg width="176" height="128" viewBox="0 0 176 128" fill="none" xmlns="http://www.w3.org/2000/svg">
<path d="M111.059 36.4445C127.825 36.4366 144.6 36.3655 161.367 36.5472C162.821 36.563 165.275 38.0084 165.542 39.1775C167.186 46.397 168.326 53.7271 169.679 61.231C149.578 61.231 130.09 61.231 110.225 61.231C109.179 54.2643 108.157 47.6371 107.205 41.0021C106.781 38.1032 107.992 36.4445 111.059 36.4445Z" fill="#9DCEFC"/>
<path d="M118.176 69.6196C126.032 69.7539 133.897 69.667 141.761 69.667C141.761 69.6591 141.761 69.6591 141.761 69.6512C149.885 69.6512 158.008 69.6986 166.132 69.6196C168.499 69.5959 169.805 70.1488 169.687 72.9134C169.514 77.1156 169.569 81.3336 169.687 85.5437C169.75 87.8265 168.782 88.49 166.643 88.4821C150.27 88.4347 133.889 88.4268 117.515 88.49C115.282 88.4979 114.519 87.6369 114.582 85.4647C114.692 81.3889 114.747 77.2973 114.566 73.2294C114.433 70.4569 115.471 69.5801 118.176 69.6196Z" fill="#9DCEFC"/>
<path d="M99.4827 37.4318C100.269 37.3765 101.48 37.7004 101.842 38.2928C102.573 39.4776 103.061 40.9152 103.281 42.3054C104.209 48.269 105.003 54.2564 105.853 60.2279C105.436 60.4728 105.019 60.7255 104.602 60.9704C102.581 58.0715 99.5928 55.4175 98.7749 52.2027C97.7369 48.119 98.4054 43.585 98.4604 39.2486C98.4683 38.6009 99.0817 37.4634 99.4827 37.4318Z" fill="#9DCEFC"/>
<path d="M114.826 96.373C119.159 96.373 123.17 96.373 127.44 96.373C127.44 98.3398 127.44 100.196 127.44 102.076C123.06 102.076 119.057 102.076 114.826 102.076C114.826 100.157 114.826 98.4978 114.826 96.373Z" fill="#9DCEFC"/>
<path d="M158.512 96.4204C162.318 96.4204 165.77 96.4204 169.372 96.4204C169.372 98.3951 169.372 100.125 169.372 102.084C165.653 102.084 162.208 102.084 158.512 102.084C158.512 99.888 158.512 98.1503 158.512 96.4204Z" fill="#9DCEFC"/>
<path d="M137.742 101.247C140.857 101.247 143.758 101.247 146.668 101.247C146.668 102.992 146.668 104.469 146.668 106.097C143.578 106.097 140.786 106.097 137.742 106.097C137.742 104.398 137.742 102.921 137.742 101.247Z" fill="#9DCEFC"/>
<path d="M0.762802 110.812L0 110.946L1.10884 65.0936L1.12457 64.3037L1.13245 63.972H1.16389C1.40768 61.4048 2.46936 59.4854 4.76573 57.6292C27.517 39.2249 50.0953 20.6073 72.8387 2.18718C74.3958 0.923368 76.7944 0.125584 78.8076 0.109787C102.267 -0.0402915 125.718 0.00710156 149.177 0.00710156C150.459 0.00710156 151.733 0.117685 153.487 0.196674C153.487 5.88384 153.549 11.3735 153.455 16.8553C153.416 18.9801 153.864 20.3861 155.901 21.6341C164.536 26.9422 169.773 34.2486 171.999 44.6672C176.151 64.122 176.576 83.6085 175.491 103.277C175.428 104.367 175.263 105.441 174.987 106.499C173.076 113.877 173.108 113.861 165.645 114.303C165.291 114.327 164.945 114.588 164.528 114.762C164.166 117.092 163.804 119.398 163.372 122.194H175.632V128H1.47061V122.408C3.49171 122.218 5.22183 122.06 6.76323 121.918C4.52193 119.359 4.60057 115.409 4.41969 111.412C3.57823 111.278 3.0513 111.191 0.762802 110.812ZM2.8311 91.5784C7.43956 89.9592 12.0559 88.3636 16.6486 86.7048C34.2567 80.3463 51.8254 73.8771 69.4806 67.6528C72.7836 66.4838 73.2948 64.6829 72.2882 61.3969C49.065 70.844 25.9756 80.2357 2.88615 89.6274L2.8311 91.5784ZM72.3904 51.1047C71.5804 51.3654 70.7389 51.5155 69.9997 51.8867C48.027 62.9609 26.0621 74.0509 4.10512 85.1567C3.71976 85.3541 3.34227 85.5674 2.97266 85.7886L2.94122 87.1788C3.69618 87.1393 4.42757 87.0603 5.06458 86.768C26.6048 76.934 48.082 66.9577 69.6536 57.1947C72.5634 55.8756 73.2948 54.2248 72.3904 51.1047ZM77.974 5.78116C77.9661 4.75431 77.0696 3.73536 76.5821 2.70851C76.1574 3.76695 75.371 4.8175 75.3631 5.88384C75.2766 17.0607 75.308 28.2376 75.308 39.4065C75.3002 50.5834 75.2687 61.7524 75.3631 72.9292C75.371 73.9561 76.236 74.9829 76.7 76.0098C77.1483 74.9514 77.9897 73.8929 77.9976 72.8345C78.0684 50.4807 78.0605 28.127 77.974 5.78116ZM150.86 2.47944C148.28 4.88859 148.249 16.2392 150.86 19.0512C150.86 13.2772 150.86 8.05603 150.86 2.47944ZM149.09 122.013C147.989 114.248 147.989 114.248 140.864 114.248C129.776 114.248 118.679 114.248 107.292 114.248C106.891 116.847 106.529 119.232 106.097 122.013C120.488 122.013 134.652 122.013 149.09 122.013ZM102.188 109.73C103.517 109.73 104.752 109.73 105.986 109.73C126.528 109.73 147.069 109.651 167.611 109.809C170.788 109.833 172.203 108.648 172.534 105.773C172.966 102.021 173.273 98.2608 173.666 94.1376C149.539 94.1376 125.962 94.1376 102.18 94.1376C102.188 99.185 102.188 104.13 102.188 109.73ZM101.834 91.0966C125.411 91.0966 149.059 91.0966 172.951 91.0966C173.068 90.5595 173.273 89.9671 173.32 89.3667C174.618 72.3921 171.81 55.8282 168.13 39.3907C166.211 30.8205 153.667 20.4572 144.23 20.1966C128.926 19.7779 113.607 20.0386 98.2952 19.9991C94.717 19.9912 94.4417 22.4556 94.4417 25.1175C94.4339 38.6562 94.4339 52.2027 94.4339 65.7413C94.4339 70.5912 94.4339 75.4411 94.4339 80.4252C99.6636 82.2104 99.758 82.3526 101.834 91.0966ZM94.4339 118.829C95.1338 118.829 95.7 112.542 95.7 104.777C95.7 97.0128 95.1338 90.7253 94.4339 90.7253C93.734 90.7253 93.1677 97.0128 93.1677 104.777C93.1677 112.542 93.734 118.829 94.4339 118.829ZM92.1218 121.886C92.1218 116.555 92.1061 111.31 92.1061 106.104L80.7344 106.973C80.7422 111.942 80.7187 116.91 80.7187 121.894H92.1218V121.886ZM65.2418 118.64C66.1462 118.64 66.8854 113.332 66.8854 106.784C66.8854 100.236 66.1462 94.9275 65.2418 94.9275C64.3374 94.9275 63.5982 100.236 63.5982 106.784C63.5982 113.332 64.3374 118.64 65.2418 118.64ZM57.1416 119.359C58.046 119.359 58.7852 114.051 58.7852 107.503C58.7852 100.954 58.046 95.6463 57.1416 95.6463C56.2372 95.6463 55.498 100.954 55.498 107.503C55.498 114.051 56.2372 119.359 57.1416 119.359ZM54.8059 121.578C54.3341 117.81 54.1532 113.853 54.1139 109.841C50.7008 110.093 40.1155 111.286 38.2202 111.365C38.1416 111.641 38.0708 111.902 37.9922 112.179C38.0944 115.654 37.8191 120.907 35.3104 121.823C35.3026 121.863 35.2869 121.91 35.279 121.949C41.767 121.957 48.8763 121.578 54.8059 121.578ZM24.2061 110.812C24.2061 115.536 25.6768 119.359 27.4934 119.359C29.3101 119.359 30.7807 115.536 30.7807 110.812C30.7807 106.089 29.3101 102.266 27.4934 102.266C25.724 102.266 24.2848 105.899 24.214 110.457C24.214 110.465 24.2061 110.48 24.2061 110.488C24.2061 110.496 24.2061 110.512 24.214 110.52C24.2061 110.623 24.2061 110.717 24.2061 110.812ZM14.9578 112.89C14.9657 113.442 15.005 113.98 15.0836 114.493C15.4926 117.992 16.7508 120.543 18.2293 120.543C20.046 120.543 21.5166 116.72 21.5166 111.997C21.5166 107.273 20.046 103.45 18.2293 103.45C16.4127 103.45 14.9421 107.273 14.9421 111.997C14.9342 112.297 14.9421 112.597 14.9578 112.89ZM15.06 103.561C16.279 100.709 19.8179 100.97 22.1221 101.491C23.4827 101.104 24.9061 100.828 26.0857 100.133C29.1449 98.3398 34.6656 99.2719 35.9632 102.179L54.2554 98.9401C54.2712 98.4267 54.279 97.9133 54.2947 97.3999C54.3341 95.8201 55.3565 93.1503 56.3395 92.937C58.4314 92.4868 60.7985 93.3241 63.3072 93.6637C64.5812 90.1171 68.9931 89.4299 72.1702 93.174C73.224 89.8328 76.063 90.8122 78.0998 91.1914C79.1615 91.3888 80.5692 93.5294 80.6007 94.8249C80.6007 94.8801 80.6007 94.9354 80.6007 94.9907L92.1375 93.0871V93.8138C92.1454 92.9686 92.1454 92.1155 92.1533 91.2704C92.1847 88.0318 92.6251 84.8249 97.5953 85.6069C97.5481 85.2435 97.4931 84.8881 97.4459 84.5248C95.6764 83.9797 93.907 83.4347 92.1139 82.8818C91.9881 81.6022 91.8701 80.3305 91.6499 78.0793C84.4856 78.7112 77.4157 78.7823 70.5895 80.0935C62.9061 81.5785 55.4351 84.193 47.8697 86.3099C33.0141 90.4647 18.1428 94.6195 2.65024 98.9559L2.43002 108.103L3.01984 108C3.09848 107.937 3.1693 107.874 3.25581 107.818C4.05795 107.281 5.58362 107.171 5.81169 106.531C7.0621 102.937 9.91678 103.435 12.6535 103.482C13.4557 103.498 14.2893 103.679 15.06 103.561ZM8.89445 120.883C10.7268 120.883 12.2132 117.487 12.2132 113.3C12.2132 109.114 10.7268 105.717 8.89445 105.717C7.06209 105.717 5.57571 109.114 5.57571 113.3C5.57571 117.487 7.06995 120.883 8.89445 120.883Z" fill="#9DCEFC"/>
</svg>
