<svg width="52" height="50" viewBox="0 0 52 50" fill="none" xmlns="http://www.w3.org/2000/svg">
<path d="M48.2715 12.0794C43.5346 4.34961 34.9169 0 26.1177 0C21.9152 0 17.6712 0.989946 13.7904 3.07755C7.68899 6.36028 3.34123 11.6998 1.54091 18.1165C-0.223095 24.3999 0.658908 30.9756 4.02608 36.6332C4.25956 37.023 4.31144 37.6128 4.16098 38.0745C3.60584 39.7312 3.01437 41.4085 2.44367 43.0293L0 50L2.71864 49.1691C6.03394 48.1535 9.34404 47.143 12.6541 46.1069C13.3338 45.8966 13.9253 45.9376 14.5842 46.2402C23.4094 50.2924 31.9856 49.8718 40.0844 44.9938C51.4986 38.1155 55.1719 23.3484 48.2715 12.0794ZM34.8236 43.9988C31.9129 45.158 29.0179 45.7376 26.1488 45.7376C22.2939 45.7376 18.4909 44.6912 14.771 42.6087C14.3507 42.3728 14.0705 42.3369 13.6555 42.4702C12.0264 42.9986 10.3558 43.5012 8.74739 43.9885L7.0664 44.4963C6.90556 44.5425 6.74473 44.5886 6.54239 44.6451L5.26089 44.9938L6.18959 42.342C6.82774 40.5263 7.42958 38.8131 8.01066 37.0743C8.07292 36.8896 8.02623 36.5767 7.9484 36.4639C3.9742 30.8217 3.00919 23.9434 5.30758 17.5831C7.68899 10.9971 13.0796 6.08843 20.0993 4.11879C30.6159 1.16434 41.9159 6.17563 46.383 15.7673C48.8215 21.0043 48.9875 26.8209 46.8447 32.1502C44.6709 37.5718 40.4009 41.7778 34.8236 43.9988Z" fill="#9DCEFC"/>
<path d="M39.327 30.6011C37.5111 29.6163 35.6537 28.7136 33.7963 27.8006C33.2204 27.5185 32.7638 27.7031 32.3539 28.1904C31.7002 28.9649 30.9894 29.6984 30.3098 30.4575C29.9258 30.8884 29.5004 30.9499 28.966 30.7242C25.189 29.1188 22.2835 26.5542 20.2446 23.0201C19.9229 22.461 19.9592 22.0455 20.4313 21.5737C21.0072 20.9992 21.5261 20.3631 22.0345 19.7271C22.4081 19.2604 22.3977 18.7474 22.1746 18.1883C21.6143 16.8137 21.028 15.4493 20.5766 14.0388C20.1771 12.7821 19.5286 12.0332 18.2211 12.2846C17.2717 12.1512 16.5038 12.2846 15.8553 12.8437C13.5828 14.803 12.7475 17.2446 13.3701 20.1631C13.7956 22.1635 14.9007 23.8357 16.0006 25.5232C19.6375 31.0782 24.5923 34.8584 31.0776 36.6485C32.4473 37.0281 33.7755 37.0691 35.1348 36.7563C37.9469 36.11 39.5967 34.3199 39.7524 31.668C39.7731 31.309 39.5967 30.7448 39.327 30.6011Z" fill="#9DCEFC"/>
</svg>
