<svg width="100" height="87" viewBox="0 0 100 87" fill="none" xmlns="http://www.w3.org/2000/svg">
<path d="M8.6239 50.4127C8.49232 56.7545 9.90131 61.8291 11.0307 64.9318C13.432 62.0585 15.8333 59.1908 18.2346 56.3175C18.6129 55.8641 18.8596 55.3234 18.9528 54.7444C19.2599 52.7997 19.5669 50.8496 19.8739 48.905C19.9232 48.5991 20.0329 48.3042 20.2028 48.0474C21.42 46.1465 22.6371 44.2456 23.8542 42.3501C24.0789 42.0005 24.2325 41.6072 24.3037 41.203C24.7259 38.8706 25.148 36.5381 25.5702 34.2057C25.6798 33.6102 26.1129 33.1241 26.6941 32.9438C28.6952 32.3047 31.3432 31.2068 34.0954 29.2786C36.8366 27.3558 38.75 25.2582 40 23.6359C40.2029 23.3737 40.4605 23.1606 40.7456 22.9913C42.0066 22.2484 44.8849 20.1399 46.0471 19.3369L55.5373 13.1863C55.9046 12.9459 56.3871 12.9896 56.7105 13.2846C58.2456 14.6939 59.7752 16.1032 61.3103 17.5125C61.557 17.7365 61.7489 18.015 61.875 18.3209C63.7226 22.8165 65.5702 27.3066 67.4178 31.8022C67.648 32.3594 68.0482 32.8237 68.5691 33.1241C70.7675 34.4078 72.966 35.6914 75.1645 36.9751C75.6963 37.2865 76.1349 37.7289 76.4419 38.2588C78.6897 42.1699 80.943 46.0864 83.1908 49.9975C83.5526 50.6257 84.1502 51.0845 84.852 51.2703L87.511 51.9694C88.1469 52.1388 88.6129 52.6741 88.6897 53.3296C89.1228 57.1533 89.5505 60.9715 89.9836 64.7952C91.3651 61.261 94.0077 53.0401 91.9627 42.9455C90.1535 34.0309 85.614 28.2134 83.7555 25.8864C79.6711 20.779 75.3838 17.8676 73.5691 16.7259C71.864 15.6498 66.3432 12.3396 58.2895 10.9467C55.4276 10.4496 48.8268 9.60291 40.7456 11.5093C32.4781 13.4539 27.0121 17.2558 25.6031 18.2718C19.068 22.9804 15.4167 28.563 13.5746 31.9442C9.14473 40.0996 8.68421 47.5613 8.6239 50.4127Z" fill="#1D295D"/>
<path d="M81.8421 64.0851V60.7093H81.7982V57.492L80.5318 55.886H77.511V56.1591H77.4945V54.4166H76.4309V53.0619C76.4309 53.0619 76.0088 53.0619 75.795 53.0619C75.795 52.4611 75.795 51.8657 75.795 51.2648C75.6195 51.2648 75.4386 51.2648 75.2632 51.2648V51.1938C75.2632 50.724 75.2632 50.2543 75.2632 49.7845L74.4847 49.7736V46.6818H73.7061V49.7736L72.9989 49.7845L72.9879 51.1829L72.2204 51.1938V53.0947H71.1568V54.362H70.3783V55.6293H68.1853V60.9169H66.2939L66.2829 59.4967H64.4353V60.7093L63.2292 60.7039V54.22H62.0285V53.3023H62.0011V52.1825L62.4836 51.5707H68.3059L69.0899 52.4119V55.6347H69.6382V52.1989L68.5417 51.0299H62.2259L61.4583 52.0022V53.3132H61.102V40.7551H60.5537V40.766H59.9397V41.3123H60.5537V41.8749H59.9397V42.4211H60.5537V42.8254H59.9397V43.3716H60.5537V43.7758H59.9397V44.3221H60.5537V44.6225H59.9397V45.1687H60.5537V45.4692H59.9397V46.0154H60.5537V46.3159H59.9397V46.8621H60.5537V47.1625H59.9397V47.7088H60.5537V48.0092H59.9397V48.5554H60.5537V48.8559H59.9397V49.4021H60.5537V49.8337H59.9397V50.3799H60.5537V50.6803H59.9397V51.2266H60.5537V51.6308H59.9397V52.177H60.5537V52.5812H59.9397V53.1275H60.5537V53.3023H59.057C59.079 44.3275 59.1064 35.3528 59.1283 26.378H58.3498V52.2426H57.2862V50.9753H56.3651L56.3487 37.352L55.5866 37.3629C55.5866 37.3629 55.5866 47.1461 55.5866 52.0295H54.7368V52.8926H53.9583V59.5021H52.966V32.4195H51.3213V35.2654H50.4989V35.8116H51.3213V37.4613H50.4989V38.0075H51.3213V39.7609H50.4989V40.3072H51.3213V42.3774H50.4989V42.9237H51.3213V44.6225H50.4989V45.1687H51.3213V47.2936H50.4989V47.8399H51.3213V49.5933H50.4989V50.1395H51.3213V52.2644H50.4989V52.8107H51.3213V59.5076H49.7259V26.378H47.4616L47.4561 47.7634H40.7621L39.682 48.6647V34.7683H38.6184V50.4345L36.3871 48.0584L35.5154 48.8668V48.9378L34.4901 48.9324L34.4792 47.8453L32.5768 47.8344L32.5877 48.9433L31.4583 48.9324L31.4693 49.8173H30.3728V39.1382H29.205V60.0702H26.7654L24.216 63.4515C21.8531 63.73 18.75 64.3309 15.3015 65.6692C12.1327 66.9037 9.61623 68.4004 7.76864 69.6841C16.3542 66.647 23.7445 65.1557 29.1338 64.3637C35.614 63.4078 40.6086 63.2548 45.8991 63.0964C57.0121 62.7577 65.0768 63.4842 66.9079 63.659C74.227 64.3528 79.5998 65.3906 80.8443 65.631C86.9189 66.8272 92.0614 68.2802 96.0526 69.5803C94.3147 68.5042 92.1656 67.3571 89.6162 66.3356C86.716 65.183 84.0515 64.5002 81.8421 64.0851ZM39.9507 49.1508L40.9594 48.3096H47.3958V49.0143H41.2555L40.3838 50.3526H39.9507V49.1508ZM38.3443 50.9371V51.019L37.4013 51.0135L37.4068 49.9374L38.3443 50.9371ZM36.3597 48.8231L37.4068 49.9374H36.0746L36.0636 49.0962L36.3597 48.8231ZM42.1436 60.1467V56.4268H43.2895V60.1467H42.1436ZM45.1974 60.4198V58.2349H43.8432V55.8805H41.875V51.4669H40.8114V50.6967L41.557 49.5551H47.4561V50.0685H45.9759V50.6148H47.4561V52.7834H45.9759V53.3296H47.4561V55.5146H45.9759V56.0608H47.4561V60.4198H45.1974ZM78.0592 56.4323H80.2632L81.25 57.6831V60.7148H78.0592V56.4323Z" fill="#1D295D"/>
<path d="M3.8761 39.0617L2.96053 37.2154L2.04496 39.0617L0 39.3567L1.48026 40.7933L1.12939 42.8253L2.96053 41.8694L4.79167 42.8253L4.44079 40.7933L5.92105 39.3567L3.8761 39.0617Z" fill="#1D295D"/>
<path d="M8.90351 24.641L10.7347 23.685L12.5658 24.641L12.2149 22.6089L13.6952 21.1723L11.6502 20.8774L10.7347 19.0311L9.81908 20.8774L7.77413 21.1723L9.25439 22.6089L8.90351 24.641Z" fill="#1D295D"/>
<path d="M24.3969 11.1105L26.2281 10.1492L28.0537 11.1105L27.7083 9.07852L29.1886 7.6419L27.1436 7.34693L26.2281 5.49517L25.3125 7.34693L23.2675 7.6419L24.7478 9.07852L24.3969 11.1105Z" fill="#1D295D"/>
<path d="M48.0099 5.6099L49.841 4.65398L51.6667 5.6099L51.3213 3.58335L52.8016 2.14127L50.7511 1.8463L49.841 0L48.9254 1.8463L46.8805 2.14127L48.3608 3.58335L48.0099 5.6099Z" fill="#1D295D"/>
<path d="M71.6557 11.1105L73.4814 10.1492L75.3125 11.1105L74.9616 9.07852L76.4419 7.6419L74.3969 7.34693L73.4814 5.49517L72.5713 7.34693L70.5208 7.6419L72.0011 9.07852L71.6557 11.1105Z" fill="#1D295D"/>
<path d="M86.9353 24.641L88.7665 23.685L90.5921 24.641L90.2467 22.6089L91.727 21.1723L89.6765 20.8774L88.7665 19.0311L87.8509 20.8774L85.8059 21.1723L87.2862 22.6089L86.9353 24.641Z" fill="#1D295D"/>
<path d="M100 39.3567L97.955 39.0617L97.0395 37.2154L96.1239 39.0617L94.0789 39.3567L95.5592 40.7933L95.2083 42.8253L97.0395 41.8694L98.8706 42.8253L98.5197 40.7933L100 39.3567Z" fill="#1D295D"/>
<path d="M19.6162 69.9244L16.9189 83.3292H19.0954L19.6217 80.6854H21.9627L22.4561 83.3292H25.1919L22.4507 69.9244H19.6162ZM20.0768 77.763L20.784 73.8737L21.4912 77.763H20.0768Z" fill="#1D295D"/>
<path d="M29.8355 74.6112L29.0735 76.818C28.8871 77.3588 28.6568 78.0853 28.3882 78.9975C28.4375 77.976 28.4594 77.1731 28.4594 76.5831V73.4149H25.9046V83.3347H28.4594V82.3897L29.2215 80.1993C29.4079 79.6639 29.6382 78.9374 29.9068 78.0252C29.8575 78.9047 29.8355 79.7076 29.8355 80.4341V83.3347H32.3904V73.4149H29.8355V74.6112Z" fill="#1D295D"/>
<path d="M30.5976 70.9295C31.0307 70.4051 31.3268 69.6404 31.4748 68.6353H30.3509C30.0768 69.5639 29.682 70.0282 29.1612 70.0282C28.6458 70.0282 28.2401 69.5639 27.9441 68.6353H26.8202C26.9847 69.6841 27.2862 70.4597 27.7248 70.9623C28.1579 71.4648 28.6404 71.7161 29.1557 71.7161C29.682 71.7215 30.1645 71.4594 30.5976 70.9295Z" fill="#1D295D"/>
<path d="M36.8421 80.7837C36.5296 80.7837 36.3103 80.5871 36.1842 80.1938C36.0581 79.8005 35.9978 79.1941 35.9978 78.3748C35.9978 77.4243 36.0581 76.7579 36.1842 76.3755C36.3103 75.9932 36.5077 75.802 36.7818 75.802C37.2094 75.802 37.4671 76.3264 37.5603 77.3806L39.7917 77.0966C39.7094 75.9495 39.3969 75.0045 38.8432 74.2561C38.295 73.5078 37.5822 73.1309 36.7051 73.1309C35.7182 73.1309 34.9178 73.6279 34.3037 74.6166C33.6897 75.6108 33.3772 76.8726 33.3772 78.4021C33.3772 79.8988 33.6897 81.1333 34.3092 82.0892C34.9287 83.0506 35.7347 83.5258 36.7325 83.5258C37.6206 83.5258 38.3333 83.1599 38.8651 82.4279C39.4024 81.6959 39.7204 80.7455 39.8191 79.582L37.6426 79.2979C37.5713 80.2921 37.2972 80.7837 36.8421 80.7837Z" fill="#1D295D"/>
<path d="M44.0186 73.3931C43.5307 73.3931 43.0702 73.5351 42.6425 73.8137C42.6974 73.1855 42.8344 72.7267 43.0537 72.4371C43.273 72.1476 43.6733 71.9128 44.2599 71.7325C45.1864 71.4375 45.8169 71.0715 46.1513 70.6345C46.4857 70.1975 46.6667 69.6677 46.6831 69.045H44.205C44.1996 69.3345 44.1612 69.5257 44.0844 69.6295C44.0077 69.7333 43.8103 69.848 43.4978 69.9791C42.9112 70.2358 42.4507 70.498 42.1217 70.7766C41.7928 71.0552 41.4803 71.4921 41.1787 72.0985C40.8772 72.7048 40.6524 73.4641 40.4934 74.3708C40.3399 75.2831 40.2577 76.3537 40.2577 77.5827C40.2577 78.7954 40.3619 79.8223 40.5757 80.669C40.7895 81.5157 41.1678 82.2039 41.716 82.7393C42.2643 83.2746 42.9331 83.5422 43.7226 83.5422C44.7807 83.5422 45.6305 83.0506 46.2664 82.0619C46.9024 81.0732 47.2204 79.8059 47.2204 78.2601C47.2204 76.9327 46.9463 75.7911 46.4035 74.8351C45.8607 73.8683 45.0658 73.3931 44.0186 73.3931ZM44.375 80.5215C44.2434 80.893 44.0296 81.0787 43.7336 81.0787C43.4375 81.0787 43.2182 80.9039 43.0757 80.5543C42.9331 80.2047 42.8673 79.4727 42.8673 78.3693C42.8673 77.2714 42.9331 76.5285 43.0647 76.1516C43.1963 75.7747 43.4101 75.5835 43.7061 75.5835C44.0351 75.5835 44.2599 75.7856 44.386 76.1898C44.5121 76.594 44.5724 77.3205 44.5724 78.3584C44.5724 79.429 44.5066 80.1501 44.375 80.5215Z" fill="#1D295D"/>
<path d="M51.4419 73.1363C50.3673 73.1363 49.5066 73.6498 48.8651 74.6767C48.2237 75.7037 47.9002 76.9655 47.9002 78.4567C47.9002 79.8988 48.2292 81.106 48.8816 82.0783C49.534 83.0506 50.4112 83.5368 51.5077 83.5368C52.4945 83.5368 53.273 83.1926 53.8542 82.4989C54.4353 81.8052 54.7917 80.9694 54.9342 79.9917L52.5548 79.7459C52.4561 80.5652 52.1327 80.9749 51.5735 80.9749C51.1897 80.9749 50.932 80.822 50.795 80.5161C50.6579 80.2102 50.5866 79.7459 50.5757 79.1177H54.9342C54.9397 78.8773 54.9397 78.6861 54.9397 78.5496C54.9397 76.8781 54.6162 75.5617 53.9748 74.5893C53.3333 73.617 52.4836 73.1363 51.4419 73.1363ZM50.5592 77.1512C50.5592 76.0096 50.8608 75.4415 51.4638 75.4415C51.716 75.4415 51.9298 75.5562 52.1053 75.7911C52.2752 76.026 52.3684 76.4793 52.3684 77.1512H50.5592Z" fill="#1D295D"/>
<path d="M60.1151 73.1363C59.2215 73.1363 58.6075 73.6771 58.2785 74.7587V73.3439H55.932V86.4865H58.4869V82.264C58.8651 83.1162 59.4189 83.5422 60.1426 83.5422C60.8827 83.5422 61.4748 83.0725 61.9244 82.1275C62.3739 81.1825 62.5987 79.9152 62.5987 78.3147C62.5987 76.7142 62.3794 75.4579 61.9408 74.5293C61.4967 73.6006 60.8882 73.1363 60.1151 73.1363ZM59.8081 80.4287C59.693 80.8657 59.4792 81.0842 59.1722 81.0842C58.9748 81.0842 58.8103 80.964 58.6787 80.7182C58.5472 80.4724 58.4814 80.1282 58.4814 79.6803V76.8125C58.4814 76.381 58.5581 76.0697 58.7171 75.8785C58.8706 75.6873 59.0296 75.5944 59.1886 75.5944C59.4518 75.5944 59.6491 75.8075 59.7862 76.2281C59.9178 76.6487 59.9836 77.3806 59.9836 78.424C59.9781 79.3253 59.9233 79.9917 59.8081 80.4287Z" fill="#1D295D"/>
<path d="M63.613 83.3292H66.1678V75.9058H68.2402V73.4095H63.613V83.3292Z" fill="#1D295D"/>
<path d="M74.4298 69.9244L71.7325 83.3292H73.909L74.4353 80.6854H76.7763L77.2698 83.3292H80.0055L77.2643 69.9244H74.4298ZM74.8904 77.763L75.5976 73.8737L76.3048 77.763H74.8904Z" fill="#1D295D"/>
<path d="M84.1722 72.7649C84.4737 72.7649 84.7368 72.967 84.9616 73.3658C85.1864 73.7645 85.2961 74.4145 85.2961 75.3104L87.7961 75.1028C87.7138 73.4805 87.3629 72.175 86.7434 71.1917C86.1239 70.2085 85.2357 69.7169 84.0789 69.7169C82.8399 69.7169 81.8805 70.3614 81.1842 71.6506C80.4934 72.9397 80.148 74.6385 80.148 76.7361C80.148 78.8555 80.5154 80.5215 81.2445 81.7233C81.9737 82.9305 82.9331 83.5313 84.1173 83.5313C85.1042 83.5313 85.932 83.0943 86.6118 82.2149C87.2917 81.3354 87.6809 80.0791 87.7961 78.4349L85.3454 78.2109C85.2577 79.6912 84.8629 80.4287 84.1557 80.4287C83.761 80.4287 83.4485 80.1665 83.2292 79.6421C83.0099 79.1177 82.9002 78.129 82.9002 76.6651C82.9057 74.065 83.3279 72.7649 84.1722 72.7649Z" fill="#1D295D"/>
<path d="M40.4276 31.0484C40.1535 31.1358 39.6327 31.3324 39.205 31.8404C38.5965 32.5669 38.602 33.5229 38.6184 33.7851C39.8465 33.8233 40.0713 33.8178 40.3893 33.5119C40.7018 33.2115 40.466 32.8619 41.0746 32.4195C41.4474 32.1518 41.7873 32.6489 42.6042 32.0371C42.8893 31.8241 44.5724 32.1136 44.3037 31.7858C43.454 30.7534 41.4748 30.7152 40.4276 31.0484Z" fill="#1D295D"/>
<path d="M47.4561 29.7702H45.9759V30.3164H47.4561V29.7702Z" fill="#1D295D"/>
<path d="M47.4561 32.5888H45.9759V33.135H47.4561V32.5888Z" fill="#1D295D"/>
<path d="M47.4561 35.6204H45.9759V36.1667H47.4561V35.6204Z" fill="#1D295D"/>
<path d="M47.4561 38.5647H45.9759V39.1109H47.4561V38.5647Z" fill="#1D295D"/>
<path d="M47.4561 41.274H45.9759V41.8203H47.4561V41.274Z" fill="#1D295D"/>
<path d="M47.4561 44.1636H45.9759V44.7099H47.4561V44.1636Z" fill="#1D295D"/>
</svg>
