<svg width="175" height="150" viewBox="0 0 175 150" fill="none" xmlns="http://www.w3.org/2000/svg">
<path d="M15.0089 87.4344C14.7799 98.4336 17.2321 107.235 19.1977 112.616C23.3769 107.633 27.5561 102.659 31.7353 97.6757C32.3937 96.8894 32.823 95.9515 32.9852 94.9472C33.5196 91.5745 34.0539 88.1924 34.5882 84.8196C34.6741 84.2891 34.8649 83.7775 35.1607 83.3323C37.279 80.0353 39.3972 76.7384 41.5154 73.451C41.9066 72.8447 42.1738 72.1625 42.2978 71.4615C43.0325 67.4161 43.7672 63.3708 44.5019 59.3254C44.6928 58.2928 45.4466 57.4496 46.458 57.137C49.9406 56.0285 54.5492 54.1243 59.3391 50.78C64.1099 47.4452 67.4399 43.8072 69.6154 40.9935C69.9684 40.5387 70.4169 40.1692 70.913 39.8755C73.1076 38.5871 78.1169 34.9302 80.1398 33.5375L96.6562 22.8699C97.2955 22.4531 98.1352 22.5289 98.6981 23.0405C101.37 25.4847 104.032 27.929 106.704 30.3732C107.133 30.7617 107.467 31.2448 107.686 31.7754C110.902 39.5724 114.117 47.3599 117.333 55.1569C117.734 56.1233 118.43 56.9285 119.337 57.4496C123.163 59.676 126.989 61.9023 130.815 64.1287C131.741 64.6687 132.504 65.4361 133.038 66.355C136.95 73.1384 140.872 79.9311 144.784 86.7144C145.414 87.8039 146.454 88.5997 147.675 88.9218L152.303 90.1345C153.41 90.4282 154.221 91.3566 154.354 92.4935C155.108 99.1252 155.852 105.747 156.606 112.379C159.01 106.25 163.61 91.9914 160.051 74.4836C156.902 59.0223 149.001 48.9326 145.767 44.8967C138.658 36.0386 131.197 30.989 128.039 29.009C125.071 27.1426 115.463 21.4015 101.446 18.9856C96.4654 18.1235 84.9773 16.6551 70.913 19.9614C56.5243 23.3341 47.0114 29.928 44.5592 31.6901C33.1856 39.8566 26.8309 49.5389 23.625 55.4032C15.9154 69.5478 15.1139 82.4891 15.0089 87.4344Z" fill="white"/>
<path d="M142.437 111.148V105.293H142.36V99.7126L140.156 96.9273H134.899V97.401H134.87V94.3788H133.019V92.0293C133.019 92.0293 132.285 92.0293 131.912 92.0293C131.912 90.9872 131.912 89.9545 131.912 88.9124C131.607 88.9124 131.292 88.9124 130.987 88.9124V88.7892C130.987 87.9745 130.987 87.1597 130.987 86.345L129.632 86.326V80.9638H128.277V86.326L127.046 86.345L127.027 88.7703L125.691 88.7892V92.0861H123.84V94.2841H122.485V96.482H118.669V105.653H115.377L115.358 103.19H112.142V105.293L110.043 105.283V94.0378H107.953V92.4461H107.906V90.504L108.745 89.4429H118.879L120.243 90.9019V96.4915H121.197V90.5324L119.289 88.505H108.297L106.961 90.1914V92.4651H106.341V70.6846H105.387V70.7036H104.318V71.651H105.387V72.6268H104.318V73.5742H105.387V74.2752H104.318V75.2226H105.387V75.9237H104.318V76.8711H105.387V77.3922H104.318V78.3395H105.387V78.8606H104.318V79.808H105.387V80.3291H104.318V81.2765H105.387V81.7975H104.318V82.7449H105.387V83.266H104.318V84.2133H105.387V84.7344H104.318V85.6818H105.387V86.4302H104.318V87.3776H105.387V87.8987H104.318V88.8461H105.387V89.5471H104.318V90.4945H105.387V91.1956H104.318V92.143H105.387V92.4461H102.782C102.82 76.8806 102.868 61.315 102.906 45.7494H101.551V90.6082H99.7V88.4103H98.097L98.0684 64.7824L96.7421 64.8014C96.7421 64.8014 96.7421 81.7691 96.7421 90.2387H95.2632V91.7356H93.9083V103.199H92.1812V56.2275H89.3188V61.1634H87.8875V62.1108H89.3188V64.9719H87.8875V65.9193H89.3188V68.9604H87.8875V69.9078H89.3188V73.4984H87.8875V74.4458H89.3188V77.3922H87.8875V78.3395H89.3188V82.0249H87.8875V82.9723H89.3188V86.0134H87.8875V86.9608H89.3188V90.6461H87.8875V91.5935H89.3188V103.208H86.5422V45.7494H82.6015L82.5919 82.8396H70.9417L69.062 84.4028V60.3013H67.2109V87.4724L63.3275 83.3512L61.8104 84.7534V84.8765L60.0261 84.8671L60.007 82.9817L56.6961 82.9628L56.7152 84.886L54.7496 84.8671L54.7687 86.4018H52.8604V67.8804H50.828V104.184H46.582L42.1452 110.049C38.0327 110.532 32.6322 111.574 26.6306 113.895C21.1155 116.036 16.7359 118.632 13.5204 120.858C28.4625 115.591 41.3246 113.004 50.704 111.631C61.9821 109.973 70.6745 109.708 79.8821 109.433C99.2229 108.845 113.259 110.105 116.445 110.409C129.184 111.612 138.534 113.412 140.7 113.829C151.272 115.903 160.222 118.424 167.169 120.678C164.144 118.812 160.404 116.822 155.967 115.051C150.919 113.052 146.282 111.868 142.437 111.148ZM69.5295 85.246L71.2852 83.787H82.487V85.0092H71.8004L70.2833 87.3303H69.5295V85.246ZM66.7338 88.344V88.4861L65.0927 88.4766L65.1022 86.6102L66.7338 88.344ZM63.2798 84.6776L65.1022 86.6102H62.7836L62.7645 85.1513L63.2798 84.6776ZM73.3462 104.317V97.8652H75.3403V104.317H73.3462ZM78.6608 104.791V101.001H76.304V96.9178H72.8786V89.2629H71.0275V87.9271L72.3252 85.9471H82.5919V86.8376H80.0157V87.785H82.5919V91.5461H80.0157V92.4935H82.5919V96.2831H80.0157V97.2305H82.5919V104.791H78.6608ZM135.853 97.8747H139.689L141.406 100.044V105.302H135.853V97.8747Z" fill="white"/>
<path d="M6.7459 67.7477L5.15246 64.5455L3.55901 67.7477L0 68.2593L2.57623 70.7509L1.96557 74.2752L5.15246 72.6173L8.33934 74.2752L7.72868 70.7509L10.3049 68.2593L6.7459 67.7477Z" fill="white"/>
<path d="M15.4955 42.7367L18.6824 41.0787L21.8693 42.7367L21.2587 39.2124L23.8349 36.7208L20.2759 36.2092L18.6824 33.007L17.089 36.2092L13.53 36.7208L16.1062 39.2124L15.4955 42.7367Z" fill="white"/>
<path d="M42.46 19.2698L45.6469 17.6024L48.8243 19.2698L48.2232 15.7456L50.7994 13.2539L47.2404 12.7423L45.6469 9.53069L44.0535 12.7423L40.4945 13.2539L43.0707 15.7456L42.46 19.2698Z" fill="white"/>
<path d="M83.5557 9.72968L86.7426 8.07175L89.9199 9.72968L89.3188 6.21487L91.895 3.71376L88.3265 3.20217L86.7426 0L85.1491 3.20217L81.5901 3.71376L84.1663 6.21487L83.5557 9.72968Z" fill="white"/>
<path d="M124.708 19.2698L127.886 17.6024L131.073 19.2698L130.462 15.7456L133.038 13.2539L129.479 12.7423L127.886 9.53069L126.302 12.7423L122.733 13.2539L125.31 15.7456L124.708 19.2698Z" fill="white"/>
<path d="M151.301 42.7367L154.488 41.0787L157.665 42.7367L157.064 39.2124L159.64 36.7208L156.072 36.2092L154.488 33.007L152.894 36.2092L149.335 36.7208L151.912 39.2124L151.301 42.7367Z" fill="white"/>
<path d="M174.038 68.2593L170.479 67.7477L168.886 64.5455L167.293 67.7477L163.734 68.2593L166.31 70.7509L165.699 74.2752L168.886 72.6173L172.073 74.2752L171.462 70.7509L174.038 68.2593Z" fill="white"/>
<path d="M34.1398 121.275L29.4453 144.524H33.2333L34.1493 139.939H38.2236L39.0823 144.524H43.8436L39.0728 121.275H34.1398ZM34.9413 134.87L36.1721 128.125L37.403 134.87H34.9413Z" fill="white"/>
<path d="M51.9253 129.404L50.599 133.231C50.2746 134.169 49.8739 135.429 49.4063 137.011C49.4922 135.24 49.5304 133.847 49.5304 132.824V127.329H45.084V144.534H49.5304V142.895L50.8566 139.096C51.181 138.167 51.5818 136.907 52.0493 135.325C51.9635 136.85 51.9253 138.243 51.9253 139.503V144.534H56.3717V127.329H51.9253V129.404Z" fill="white"/>
<path d="M53.2516 123.018C54.0054 122.109 54.5206 120.783 54.7782 119.039H52.8222C52.3451 120.65 51.6581 121.455 50.7517 121.455C49.8548 121.455 49.1487 120.65 48.6335 119.039H46.6774C46.9637 120.858 47.4885 122.204 48.2518 123.075C49.0056 123.947 49.8452 124.383 50.7421 124.383C51.6581 124.392 52.4978 123.937 53.2516 123.018Z" fill="white"/>
<path d="M64.1195 140.109C63.5756 140.109 63.1939 139.768 62.9745 139.086C62.755 138.404 62.6501 137.352 62.6501 135.931C62.6501 134.283 62.755 133.127 62.9745 132.464C63.1939 131.801 63.5374 131.469 64.0145 131.469C64.7587 131.469 65.2072 132.379 65.3694 134.207L69.2528 133.714C69.1097 131.725 68.5658 130.086 67.6021 128.788C66.648 127.49 65.4076 126.836 63.8809 126.836C62.1634 126.836 60.7704 127.698 59.7017 129.413C58.633 131.137 58.0892 133.326 58.0892 135.979C58.0892 138.574 58.633 140.716 59.7112 142.374C60.7894 144.041 62.1921 144.865 63.9286 144.865C65.4744 144.865 66.7148 144.23 67.6403 142.961C68.5754 141.691 69.1288 140.043 69.3005 138.025L65.5125 137.532C65.3885 139.257 64.9114 140.109 64.1195 140.109Z" fill="white"/>
<path d="M76.6094 127.291C75.7602 127.291 74.9587 127.537 74.2144 128.021C74.3099 126.931 74.5484 126.135 74.9301 125.633C75.3117 125.131 76.0083 124.724 77.0292 124.411C78.6417 123.899 79.739 123.265 80.321 122.507C80.9031 121.749 81.218 120.83 81.2466 119.75H76.9338C76.9242 120.252 76.8575 120.584 76.7239 120.764C76.5903 120.944 76.2468 121.143 75.7029 121.37C74.682 121.815 73.8805 122.27 73.308 122.753C72.7355 123.236 72.1916 123.994 71.6668 125.046C71.1421 126.097 70.7509 127.414 70.4741 128.987C70.207 130.569 70.0639 132.426 70.0639 134.558C70.0639 136.661 70.2451 138.442 70.6173 139.91C70.9894 141.379 71.6478 142.572 72.6019 143.501C73.5561 144.429 74.7201 144.894 76.0941 144.894C77.9357 144.894 79.4146 144.041 80.5214 142.326C81.6282 140.611 82.1817 138.413 82.1817 135.732C82.1817 133.43 81.7046 131.45 80.76 129.792C79.8153 128.115 78.4318 127.291 76.6094 127.291ZM77.2296 139.655C77.0006 140.299 76.6285 140.621 76.1132 140.621C75.598 140.621 75.2163 140.318 74.9682 139.711C74.7201 139.105 74.6057 137.836 74.6057 135.922C74.6057 134.018 74.7201 132.729 74.9492 132.075C75.1781 131.422 75.5503 131.09 76.0655 131.09C76.638 131.09 77.0292 131.441 77.2487 132.142C77.4681 132.843 77.5731 134.103 77.5731 135.903C77.5731 137.76 77.4586 139.01 77.2296 139.655Z" fill="white"/>
<path d="M89.5287 126.846C87.6585 126.846 86.1605 127.736 85.0441 129.517C83.9278 131.299 83.3648 133.487 83.3648 136.073C83.3648 138.575 83.9373 140.668 85.0728 142.355C86.2082 144.041 87.7349 144.884 89.6432 144.884C91.3607 144.884 92.7156 144.287 93.727 143.084C94.7384 141.881 95.3586 140.431 95.6067 138.736L91.4656 138.309C91.2939 139.73 90.7309 140.441 89.7577 140.441C89.0898 140.441 88.6413 140.176 88.4028 139.645C88.1642 139.115 88.0402 138.309 88.0211 137.22H95.6067C95.6162 136.803 95.6162 136.471 95.6162 136.234C95.6162 133.335 95.0533 131.052 93.9369 129.366C92.8205 127.68 91.3416 126.846 89.5287 126.846ZM87.9925 133.809C87.9925 131.829 88.5173 130.844 89.5668 130.844C90.0058 130.844 90.3779 131.043 90.6832 131.45C90.979 131.858 91.1412 132.644 91.1412 133.809H87.9925Z" fill="white"/>
<path d="M104.623 126.846C103.068 126.846 102 127.784 101.427 129.66V127.206H97.3432V150H101.79V142.677C102.448 144.155 103.412 144.894 104.671 144.894C105.959 144.894 106.99 144.079 107.772 142.44C108.555 140.801 108.946 138.603 108.946 135.827C108.946 133.051 108.564 130.872 107.801 129.262C107.028 127.651 105.969 126.846 104.623 126.846ZM104.089 139.493C103.889 140.251 103.517 140.63 102.982 140.63C102.639 140.63 102.353 140.422 102.124 139.996C101.895 139.569 101.78 138.972 101.78 138.196V133.222C101.78 132.473 101.914 131.933 102.19 131.602C102.458 131.27 102.734 131.109 103.011 131.109C103.469 131.109 103.812 131.479 104.051 132.208C104.28 132.938 104.394 134.207 104.394 136.017C104.385 137.58 104.29 138.736 104.089 139.493Z" fill="white"/>
<path d="M110.711 144.524H115.157V131.649H118.764V127.32H110.711V144.524Z" fill="white"/>
<path d="M129.537 121.275L124.842 144.524H128.63L129.546 139.939H133.62L134.479 144.524H139.24L134.47 121.275H129.537ZM130.338 134.87L131.569 128.125L132.8 134.87H130.338Z" fill="white"/>
<path d="M146.492 126.202C147.017 126.202 147.475 126.552 147.866 127.244C148.257 127.935 148.448 129.063 148.448 130.616L152.799 130.256C152.656 127.443 152.045 125.178 150.967 123.473C149.889 121.768 148.343 120.915 146.33 120.915C144.173 120.915 142.504 122.033 141.292 124.269C140.09 126.505 139.488 129.451 139.488 133.089C139.488 136.765 140.128 139.655 141.397 141.739C142.666 143.833 144.336 144.875 146.396 144.875C148.114 144.875 149.555 144.117 150.738 142.591C151.921 141.066 152.599 138.887 152.799 136.035L148.534 135.647C148.381 138.214 147.694 139.493 146.463 139.493C145.776 139.493 145.232 139.039 144.851 138.129C144.469 137.22 144.278 135.505 144.278 132.966C144.288 128.456 145.023 126.202 146.492 126.202Z" fill="white"/>
<path d="M70.3596 53.8495C69.8826 54.0011 68.9761 54.3422 68.2319 55.2233C67.1728 56.4833 67.1823 58.1412 67.2109 58.596C69.3482 58.6623 69.7394 58.6528 70.2928 58.1223C70.8367 57.6012 70.4264 56.9949 71.4855 56.2275C72.1344 55.7633 72.726 56.6254 74.1477 55.5643C74.6438 55.1948 77.5731 55.6969 77.1055 55.1285C75.6266 53.338 72.1821 53.2716 70.3596 53.8495Z" fill="white"/>
<path d="M82.5919 51.6327H80.0157V52.5801H82.5919V51.6327Z" fill="white"/>
<path d="M82.5919 56.5212H80.0157V57.4685H82.5919V56.5212Z" fill="white"/>
<path d="M82.5919 61.7792H80.0157V62.7266H82.5919V61.7792Z" fill="white"/>
<path d="M82.5919 66.8856H80.0157V67.833H82.5919V66.8856Z" fill="white"/>
<path d="M82.5919 71.5846H80.0157V72.532H82.5919V71.5846Z" fill="white"/>
<path d="M82.5919 76.5963H80.0157V77.5437H82.5919V76.5963Z" fill="white"/>
</svg>
